<svg width="27" height="50" viewBox="0 0 27 50" fill="none" xmlns="http://www.w3.org/2000/svg">
<path d="M21.671 24.9576C21.3467 24.714 21.118 24.5824 20.9384 24.4006C14.2971 17.6851 7.65463 10.9711 1.0357 4.23282C0.613301 3.80266 0.228496 3.22137 0.0885676 2.64535C-0.158396 1.62597 0.39192 0.681101 1.27431 0.237202C2.14103 -0.19877 3.1576 -0.0317795 3.90997 0.721792C5.85174 2.66755 7.77889 4.62758 9.71074 6.58337C15.1105 12.0486 20.5098 17.5139 25.9085 22.9802C27.3652 24.4551 27.3642 25.5532 25.9033 27.0318C18.6547 34.3693 11.404 41.7048 4.15955 49.0466C3.63221 49.5808 3.07824 50.0083 2.28461 49.9999C1.32339 49.9898 0.60808 49.557 0.222231 48.683C-0.158396 47.8205 -0.0550157 46.9756 0.570488 46.2368C0.737044 46.0397 0.924486 45.8605 1.10618 45.6766C7.71049 38.9907 14.3148 32.3042 20.9212 25.6203C21.1024 25.4369 21.3071 25.2779 21.671 24.9571V24.9576Z" fill="black"/>
</svg>
