<svg width="27" height="50" viewBox="0 0 27 50" fill="none" xmlns="http://www.w3.org/2000/svg">
<path d="M5.32903 24.9576C5.65327 24.714 5.88196 24.5824 6.06157 24.4006C12.7029 17.6851 19.3454 10.9711 25.9643 4.23282C26.3867 3.80266 26.7715 3.22137 26.9114 2.64535C27.1584 1.62597 26.6081 0.681101 25.7257 0.237202C24.859 -0.19877 23.8424 -0.0317795 23.09 0.721792C21.1483 2.66755 19.2211 4.62758 17.2893 6.58337C11.8895 12.0486 6.49023 17.5139 1.09149 22.9802C-0.365225 24.4551 -0.36418 25.5532 1.09671 27.0318C8.34532 34.3693 15.596 41.7048 22.8405 49.0466C23.3678 49.5808 23.9218 50.0083 24.7154 49.9999C25.6766 49.9898 26.3919 49.557 26.7778 48.683C27.1584 47.8205 27.055 46.9756 26.4295 46.2368C26.263 46.0397 26.0755 45.8605 25.8938 45.6766C19.2895 38.9907 12.6852 32.3042 6.07879 25.6203C5.89762 25.4369 5.69295 25.2779 5.32903 24.9571V24.9576Z" fill="black"/>
</svg>
